<?xml version="1.0" encoding="UTF-8" standalone="no"?>
<svg id="svg2" xmlns:rdf="http://www.w3.org/1999/02/22-rdf-syntax-ns#" xmlns="http://www.w3.org/2000/svg" height="48" width="314" version="1.1" xmlns:cc="http://creativecommons.org/ns#" xmlns:dc="http://purl.org/dc/elements/1.1/">
 <metadata id="metadata34">
  <rdf:RDF>
   <cc:Work rdf:about="">
    <dc:format>image/svg+xml</dc:format>
    <dc:type rdf:resource="http://purl.org/dc/dcmitype/StillImage"/>
    <dc:title/>
   </cc:Work>
  </rdf:RDF>
 </metadata>
 <g id="g6" transform="translate(-773.38 -262) scale(1)">
  <path id="path8" stroke-linejoin="round" d="m845.5 290h168" paint-order="fill stroke markers" stroke="#555" stroke-miterlimit="10" stroke-width="1.25" fill="none"/>
  <path id="path10" d="m1013.5 295.44h-3.6v-10.88h3.6z" paint-order="stroke fill markers" fill="#555"/>
  <path id="path12" d="m810 272.5h27a8 8 0 0 1 8 8v19a8 8 0 0 1 -8 8h-54a8 8 0 0 1 -8 -8v-19a8 8 0 0 1 8 -8h27z" fill-opacity=".5" paint-order="fill stroke markers" stroke="#555" stroke-miterlimit="10" stroke-width="1.25" fill="#f4a582"/>
  <text id="text16" font-size="15px" text-anchor="middle" text-decoration="normal" dominant-baseline="text-after-edge" y="297.5" x="810" font-family="Helvetica" fill="rgb(0,0,0)">source</text>
  <path id="path18" d="m1050 272.5h27a8 8 0 0 1 8 8v19a8 8 0 0 1 -8 8h-54a8 8 0 0 1 -8 -8v-19a8 8 0 0 1 8 -8h27z" fill-opacity=".5" paint-order="fill stroke markers" stroke="#555" stroke-miterlimit="10" stroke-width="1.25" fill="#f4a582"/>
  <text id="text22" font-size="15px" text-anchor="middle" text-decoration="normal" dominant-baseline="text-after-edge" y="297.5" x="1050" font-family="Helvetica" fill="rgb(0,0,0)">target</text>
  <path id="path24" d="m930 264h11.5a6 6 0 0 1 6 6 6 6 0 0 1 -6 6h-23a6 6 0 0 1 -6 -6 6 6 0 0 1 6 -6h11.5z" fill-opacity=".5" paint-order="fill stroke markers" stroke="#d67614" stroke-miterlimit="10" stroke-width="0" fill="#fff"/>
  <text id="text28" font-size="14px" text-anchor="middle" text-decoration="normal" dominant-baseline="text-after-edge" y="277" x="930" font-family="Helvetica" fill="rgb(0,0,0)">causal interaction</text>
 </g>
</svg>
